PathFileType	4	(X/Y/Z)	s09c0403.trc
DataRate	CameraRate	NumFrames	NumMarkers	Units	OrigDataRate	OrigDataStartFrame	OrigNumFrames
200	200	4	50	mm	200	750	2000
Frame#	Time	racr			lacr			c7			jug			rlel			rdr			llel			ldr			s2			lic			ric			lasi			rasi			rpsi			lpsi			rgt			lgt			rth1			rth2			rth3			rth4			rlfc			rmfc			rsh1			rsh2			rsh3			rsh4			rlmal			rmmal			rcal			rtoe			rmt5			lth1			lth2			lth4			lth3			llfc			lmfc			llmal			lmmal			lcal			lmt5			lsh1			lsh2			lsh3			lsh4			ltoe			SBIKE			LBIKE			RBIKE			
		X1	Y1	Z1	X2	Y2	Z2	X3	Y3	Z3	X4	Y4	Z4	X5	Y5	Z5	X6	Y6	Z6	X7	Y7	Z7	X8	Y8	Z8	X9	Y9	Z9	X10	Y10	Z10	X11	Y11	Z11	X12	Y12	Z12	X13	Y13	Z13	X14	Y14	Z14	X15	Y15	Z15	X16	Y16	Z16	X17	Y17	Z17	X18	Y18	Z18	X19	Y19	Z19	X20	Y20	Z20	X21	Y21	Z21	X22	Y22	Z22	X23	Y23	Z23	X24	Y24	Z24	X25	Y25	Z25	X26	Y26	Z26	X27	Y27	Z27	X28	Y28	Z28	X29	Y29	Z29	X30	Y30	Z30	X31	Y31	Z31	X32	Y32	Z32	X33	Y33	Z33	X34	Y34	Z34	X35	Y35	Z35	X36	Y36	Z36	X37	Y37	Z37	X38	Y38	Z38	X39	Y39	Z39	X40	Y40	Z40	X41	Y41	Z41	X42	Y42	Z42	X43	Y43	Z43	X44	Y44	Z44	X45	Y45	Z45	X46	Y46	Z46	X47	Y47	Z47	X48	Y48	Z48	X49	Y49	Z49	X50	Y50	Z50	
750	3.7500	748.827266	1251.052416	-54.854582	744.410101	1266.038923	-441.636837	751.153180	1343.534253	-245.611912	758.101399	1203.203410	-248.513400	554.516631	1083.197673	22.210119	690.363113	909.957131	-59.646371	536.862024	1087.106169	-526.361122	680.314452	905.661542	-447.742567	276.590191	1171.784528	-327.530506	429.743084	1118.430402	-435.303223	382.454011	1180.658440	-147.246710	454.004575	1050.934987	-377.563127	414.481547	1117.483935	-142.055234	294.092289	1210.772689	-269.362083	324.931076	1190.724241	-373.379262	337.391476	1067.091495	-87.833131	364.668557	983.631526	-455.666546	454.654915	981.499325	-83.478286	536.816900	949.241860	-87.514109	587.771416	877.919485	-82.543341	555.713368	969.521758	-110.850928	640.658005	785.874751	-106.533154	624.011972	765.113024	-206.886263	546.261026	744.285495	-79.080165	484.382726	680.197601	-89.646044	399.445442	656.945227	-87.566074	499.910198	657.869657	-117.717339	311.207935	599.603977	-85.945495	317.884945	607.926338	-162.947811	224.950176	618.837758	-121.533486	433.868936	453.363014	-130.633741	359.751179	489.137534	-64.353224	364.191850	858.218648	-447.980191	389.048664	778.097646	-433.552189	422.697978	780.278790	-414.959839	369.198946	690.270493	-426.282958	355.766401	596.886730	-406.638038	354.345343	582.531460	-306.737997	196.109421	266.544666	-415.830993	220.044855	268.804117	-348.559379	125.104982	262.574469	-376.416112	257.073151	146.386670	-430.850986	304.584419	510.132538	-430.558130	291.931312	424.972717	-422.704880	237.053688	355.217327	-421.065703	317.567258	416.282411	-393.151560	347.198195	124.350280	-360.825595	-64.773244	851.226503	-241.436152	21.124613	83.821317	-442.342863	20.991623	84.073899	-44.021618	
751	3.7550	749.236320	1250.858318	-52.323782	745.555882	1264.612106	-438.570401	751.796526	1342.954623	-243.399061	758.261922	1202.423730	-245.987262	554.640517	1082.837209	23.683261	690.257179	910.646377	-58.491107	537.095484	1087.504826	-524.800314	681.264933	905.476226	-447.950714	277.238969	1173.963119	-328.391202	431.438721	1119.036359	-435.049916	382.486963	1181.693013	-147.235376	454.739638	1051.605107	-377.480689	414.126274	1118.300267	-141.478003	294.924926	1212.362710	-269.542067	326.260772	1192.306108	-373.599440	337.349973	1068.377893	-88.077508	364.543224	984.942320	-456.096160	453.935213	983.059314	-83.405902	536.520462	951.753200	-86.936728	587.970662	880.970208	-81.402369	555.485167	972.405243	-109.913400	641.822939	790.391911	-103.818637	628.056642	768.989354	-205.219519	548.989655	745.717423	-78.479361	488.215275	680.265558	-89.483511	404.884097	655.337664	-86.560492	504.714519	658.454941	-117.203241	317.122764	595.801521	-86.336555	323.455181	604.263324	-163.298145	230.505586	612.459988	-121.619199	444.564536	454.106598	-130.358132	369.082995	487.270761	-64.155774	364.473950	859.278388	-448.517698	389.010512	779.041208	-434.506755	422.783390	781.076084	-415.850178	368.855794	691.205216	-426.979630	354.170595	597.854543	-407.812020	354.393746	583.034523	-307.645223	187.704079	270.332001	-415.990897	211.967559	272.423208	-348.504325	116.698418	267.407279	-376.016827	246.885815	149.242397	-430.705533	301.550601	511.862608	-431.318906	286.948055	426.967375	-423.262692	230.523029	358.574614	-421.299121	312.590556	417.826364	-393.996980	336.734311	125.971057	-360.859132	-64.744551	851.262407	-241.328435	21.110980	83.863683	-442.333481	20.966604	84.037514	-44.002481	
752	3.7600	749.741337	1250.455438	-50.063370	746.871038	1263.064370	-435.988909	752.566899	1342.201595	-241.210616	758.229331	1201.329500	-243.703691	554.739438	1082.568550	25.160178	690.342546	910.863075	-57.366865	537.351161	1087.545074	-522.636456	681.525316	905.568537	-447.484098	278.155317	1175.855195	-328.092713	432.990149	1119.799383	-434.710817	382.762277	1182.915412	-147.088950	455.398183	1052.529631	-377.800210	413.868612	1118.957764	-141.112377	295.866635	1214.090451	-269.305852	327.407462	1194.170399	-373.535203	337.713595	1069.665262	-88.273862	364.155683	986.529792	-456.523370	453.070967	984.534389	-83.187123	536.008649	953.822306	-86.272148	586.747223	884.291577	-79.139829	555.124617	974.680698	-108.923960	643.392116	793.185952	-103.398729	630.548809	771.513986	-204.597030	551.091438	746.322959	-77.843476	491.824675	679.397026	-89.129755	408.735603	652.504050	-87.065392	508.979069	657.928469	-116.790544	322.761414	591.148667	-86.675101	328.507497	599.662339	-163.514112	235.882144	605.115852	-121.754128	455.132815	454.100926	-130.318455	378.124298	484.762753	-63.983397	364.886843	860.380064	-449.103793	389.488375	780.093807	-435.272112	423.290752	782.277743	-416.712101	369.194978	692.449585	-427.669928	353.727152	598.826446	-408.910141	355.439393	583.748439	-308.841118	179.491775	274.831248	-415.999617	204.234658	276.546302	-348.370781	108.579787	272.861272	-375.517208	236.884081	152.887114	-430.641111	299.497778	513.724214	-432.039950	282.739223	429.308752	-423.665123	224.539493	362.349503	-421.456577	308.242019	419.466477	-394.526058	326.402361	128.249013	-360.848530	-64.726922	851.290079	-241.217790	21.118047	83.908039	-442.340481	20.935162	84.026754	-43.987842	
753	3.7650	750.348389	1249.946095	-48.013153	748.196312	1261.120751	-433.259456	753.379579	1341.374990	-239.160858	758.260785	1200.303299	-241.455880	554.889647	1082.350265	26.721284	690.390325	910.974425	-56.141638	537.180534	1087.800984	-521.247263	681.642393	905.598705	-447.147806	279.030596	1178.134363	-327.690532	434.393828	1120.708853	-434.286178	383.366109	1184.053299	-146.755691	455.929459	1053.816031	-378.398287	413.779890	1119.400124	-140.919441	296.810796	1215.963151	-268.791298	328.388898	1196.188037	-373.104964	338.319548	1070.946717	-88.391586	363.658456	988.293953	-456.877391	452.171233	985.766687	-83.036091	535.280892	955.298089	-85.481202	586.293484	886.011514	-78.292134	554.589609	976.473401	-107.894215	644.287146	794.784268	-102.947671	632.110782	773.256004	-203.932800	552.790135	746.055975	-77.064777	494.934765	677.693455	-88.808147	412.527896	648.797319	-87.067301	512.720550	656.925242	-116.559483	328.112100	585.610610	-87.068377	333.363622	594.242530	-163.796901	240.877138	596.782227	-122.061130	465.002257	453.888695	-129.702537	386.812172	481.553001	-63.617880	365.532889	861.639194	-449.570520	390.370249	781.406577	-435.894702	424.367379	783.613617	-417.498376	370.387808	693.644295	-428.198722	354.510196	599.716271	-409.926234	357.388886	584.485091	-310.176136	171.735900	279.983340	-415.939152	196.864936	281.304488	-348.126919	100.854553	279.086661	-375.130424	227.199169	157.195225	-430.404664	298.316992	515.741909	-432.700655	279.214209	431.788988	-423.913610	219.225009	366.576061	-421.496769	304.518997	421.352845	-394.811057	316.302659	131.042917	-360.796146	-64.704901	851.320507	-241.102633	21.133873	83.955829	-442.327954	20.922797	84.019036	-43.970740	
